<svg xmlns="http://www.w3.org/2000/svg" height="230.036" width="186.224" viewBox="-7.088 -2.944 9.532 5.079"><path d="M-2.882-.405c.626-.88 1.352-.704 2.208-.606a1.26 1.26 0 01-.339-.877c0-.758.629-1.372 1.404-1.372 1.62 0 1.42 1.833.717 1.833a.331.331 0 01-.319-.242c-.028-.108 0-.235-.038-.338a.388.388 0 00-.36-.248.385.385 0 00-.269.108c-.218.21-.082.63.06.846.198.298.546.49.944.487l.065-.002c1.11-.125 1.437-1.07 1.155-1.928-.122-.372-.55-.92-1.03-1.15.886-.513 1.158-1.696 1.126-2.398l-9.53 5.887 9.53 5.888c.032-.702-.24-1.885-1.126-2.398.48-.23.908-.778 1.03-1.15.282-.858-.044-1.803-1.155-1.928L1.126.005a1.11 1.11 0 00-.944.487c-.142.215-.278.636-.06.846a.384.384 0 00.268.108.387.387 0 00.36-.248c.038-.103.011-.23.04-.339a.331.331 0 01.318-.242C1.81.617 2.01 2.45.39 2.45c-.775 0-1.404-.614-1.404-1.371 0-.329.112-.635.34-.878-.857.1-1.583.274-2.209-.606" fill="#fff"/></svg>